<?xml version="1.0" encoding="UTF-8"?>
<svg id="Layer_1" xmlns="http://www.w3.org/2000/svg" version="1.1" viewBox="0 0 1080 1080">
  <!-- Generator: Adobe Illustrator 30.2.1, SVG Export Plug-In . SVG Version: 2.1.1 Build 1)  -->
  <defs>
    <style>
      .st0 {
        fill: #ddd;
      }
    </style>
  </defs>
  <polygon class="st0" points="307.6 420.5 371.1 420.5 371.1 614 325.7 659.4 307.6 659.4 307.6 420.5"/>
  <polygon class="st0" points="737.4 478.9 686.5 478.9 671.5 478.9 632.4 478.9 605.7 506.6 605.7 659.4 654.4 659.4 654.4 525 664 515.4 678.3 515.4 686.5 515.4 711.5 515.4 723.7 528.8 723.7 659.4 772.4 659.4 772.4 515.4 737.4 478.9"/>
  <path class="st0" d="M539.1,478.9h-99.9l-38.8,38.8v102.7l39.2,39.2h99.1l39.2-39.2v-102.7l-38.8-38.8ZM532.5,611.1l-12.4,12.4h-61.8l-12.4-12.4v-84.6l11.7-11.7h63.4l11.7,11.7v84.6Z"/>
</svg>