<?xml version="1.0" encoding="UTF-8"?>
<svg version="1.1" xmlns="http://www.w3.org/2000/svg" width="1080" height="1080">
<path d="M0 0 C230.34 0 460.68 0 698 0 C698 98.34 698 196.68 698 298 C467.66 298 237.32 298 0 298 C0 199.66 0 101.32 0 0 Z M13 14 C13 103.1 13 192.2 13 284 C212.98 284 412.96 284 619 284 C619 194.9 619 105.8 619 14 C419.02 14 219.04 14 13 14 Z M648.25 79.375 C644.62060672 84.09321126 645.58267729 91.39908988 646 97 C647.04522144 101.1880942 648.31570238 103.54380159 652 106 C655.29555649 106.31897173 655.29555649 106.31897173 658.9375 106.25 C660.16339844 106.25515625 661.38929688 106.2603125 662.65234375 106.265625 C665.7533544 106.01957048 667.46399009 105.7354863 670 104 C671.35439668 101.29120665 671.06501451 98.99066732 671 96 C669.35 96 667.7 96 666 96 C665.34 97.32 664.68 98.64 664 100 C660.7 100 657.4 100 654 100 C653.2691106 94.07167483 652.63225007 88.84402244 654 83 C656.40545638 81.79727181 657.94996953 81.89928528 660.625 81.9375 C661.85089844 81.95103516 661.85089844 81.95103516 663.1015625 81.96484375 C664.04128906 81.98224609 664.04128906 81.98224609 665 82 C665 83.32 665 84.64 665 86 C666.98 86 668.96 86 671 86 C670.79487969 81.01389422 670.79487969 81.01389422 668.0625 77.0625 C661.41872909 74.75751825 653.91890127 74.92086329 648.25 79.375 Z M650 115 C650 124.57 650 134.14 650 144 C656.27 144 662.54 144 669 144 C669 142.35 669 140.7 669 139 C664.71 139 660.42 139 656 139 C656 131.08 656 123.16 656 115 C654.02 115 652.04 115 650 115 Z M646 153 C645.9419034 156.9166043 645.90637107 160.83309763 645.875 164.75 C645.85824219 165.86117187 645.84148438 166.97234375 645.82421875 168.1171875 C645.81777344 169.18710937 645.81132813 170.25703125 645.8046875 171.359375 C645.79421387 172.34389648 645.78374023 173.32841797 645.77294922 174.34277344 C646.00786089 177.09199777 646.52999427 178.68605962 648 181 C651.29947297 183.35676641 654.46762198 183.29873164 658.4375 183.3125 C660.10619141 183.33763672 660.10619141 183.33763672 661.80859375 183.36328125 C665.32063763 182.96350147 667.18580276 182.0991562 670 180 C671.3308911 177.33821779 671.11268993 175.31260604 671.09765625 172.3359375 C671.09282227 170.65371094 671.09282227 170.65371094 671.08789062 168.9375 C671.07951172 167.761875 671.07113281 166.58625 671.0625 165.375 C671.05798828 164.19164062 671.05347656 163.00828125 671.04882812 161.7890625 C671.03701467 158.85932493 671.02054258 155.92968728 671 153 C669.02 153 667.04 153 665 153 C664.67 160.92 664.34 168.84 664 177 C660.7 177 657.4 177 654 177 C652.31699331 175.31699331 652.77190923 173.17991273 652.68359375 170.87109375 C652.62075195 169.31938477 652.62075195 169.31938477 652.55664062 167.73632812 C652.51732422 166.64771484 652.47800781 165.55910156 652.4375 164.4375 C652.39431641 163.34501953 652.35113281 162.25253906 652.30664062 161.12695312 C652.20017932 158.41810436 652.09816484 155.70916008 652 153 C650.02 153 648.04 153 646 153 Z M647 192 C647 201.57 647 211.14 647 221 C650.403125 221.061875 653.80625 221.12375 657.3125 221.1875 C658.38153564 221.21481201 659.45057129 221.24212402 660.55200195 221.27026367 C661.39722412 221.27775635 662.24244629 221.28524902 663.11328125 221.29296875 C663.97735596 221.3086792 664.84143066 221.32438965 665.73168945 221.34057617 C668.48475292 220.92721663 669.34121665 220.19480507 671 218 C671.61207008 214.95619202 671.54040159 212.05469107 671 209 C669.17728073 206.87644433 669.17728073 206.87644433 667 206 C668.0209375 205.2575 668.0209375 205.2575 669.0625 204.5 C671.22230314 201.71315724 671.26529251 201.21362743 670.9375 197.875 C670.41156058 193.78450476 670.41156058 193.78450476 667 192 C664.77514259 191.72521627 664.77514259 191.72521627 662.33203125 191.8046875 C661.1251062 191.81218018 661.1251062 191.81218018 659.89379883 191.81982422 C658.87697021 191.83803223 657.8601416 191.85624023 656.8125 191.875 C651.9553125 191.936875 651.9553125 191.936875 647 192 Z " fill="#F2F2F2" transform="translate(188,391)"/>
<path d="M0 0 C4.90318553 0.10747546 9.77583762 0.01941956 14.67571187 -0.17647314 C42.56336623 -1.26019921 69.2514541 -0.58317881 91.16471028 19.1172204 C109.52869003 36.97118048 115.78929079 56.74609762 116.31364381 82.00385308 C116.39471757 88.8735594 116.19431235 95.72761815 115.95049512 102.59218049 C115.79540045 107.46164572 115.85129684 112.29711004 116.02434468 117.16532373 C116.92593513 143.13388372 117.07141926 167.8114104 98.5377171 187.90348291 C89.91606021 196.95427626 80.23085551 206.05876327 69.67912984 212.83915186 C69.01912984 212.83915186 68.35912984 212.83915186 67.67912984 212.83915186 C67.34912984 199.96915186 67.01912984 187.09915186 66.67912984 173.83915186 C64.6171938 176.62618555 62.55525777 179.41321924 60.43083882 182.2847085 C48.80992408 196.9561201 35.9126201 212.32077923 16.63717103 215.61180067 C9.92570487 216.37962489 3.27899816 216.65854158 -3.47321391 216.64774561 C-4.70080487 216.6473283 -5.92839583 216.64691099 -7.19318652 216.64648104 C-17.24758963 216.53085645 -27.20463344 215.85512271 -37.25837016 215.27665186 C-66.98930766 214.07008936 -66.98930766 214.07008936 -97.32087016 212.83915186 C-97.32087016 171.58915186 -97.32087016 130.33915186 -97.32087016 87.83915186 C-56.07087016 87.83915186 -14.82087016 87.83915186 27.67912984 87.83915186 C27.67912984 101.69915186 27.67912984 115.55915186 27.67912984 129.83915186 C0.28912984 129.83915186 -27.10087016 129.83915186 -55.32087016 129.83915186 C-55.32087016 143.03915186 -55.32087016 156.23915186 -55.32087016 169.83915186 C-14.73087016 169.83915186 25.85912984 169.83915186 67.67912984 169.83915186 C67.67912984 129.24915186 67.67912984 88.65915186 67.67912984 46.83915186 C13.22912984 46.83915186 -41.22087016 46.83915186 -97.32087016 46.83915186 C-95.34087016 44.52915186 -93.36087016 42.21915186 -91.32087016 39.83915186 C-90.33401798 38.54349229 -89.36248091 37.23569507 -88.42063212 35.90696192 C-64.45383326 3.13202846 -38.42710038 -0.97777647 0 0 Z " fill="#F2F2F2" transform="translate(330.3208701610565,431.16084814071655)"/>
<path d="M0 0 C5.66848305 6.68590308 6.31183921 14.50975225 6.3359375 22.92578125 C6.3459227 24.16813789 6.3459227 24.16813789 6.35610962 25.43559265 C6.36617375 27.17766114 6.37092859 28.9197677 6.37060547 30.66186523 C6.37497168 33.29542066 6.41133721 35.92728771 6.44921875 38.56054688 C6.5855347 58.68411468 6.5855347 58.68411468 0.3215332 65.94580078 C-8.41329603 74.25387233 -19.36678872 74.19880402 -30.6875 74.25 C-31.80833984 74.270625 -32.92917969 74.29125 -34.08398438 74.3125 C-44.4357628 74.36056397 -53.71835092 73.35429788 -61.41015625 65.8984375 C-66.65035296 59.64110187 -67.15561682 52.07006761 -67.16796875 44.20703125 C-67.17129715 43.46096115 -67.17462555 42.71489105 -67.17805481 41.94621277 C-67.18310302 40.3703167 -67.18546379 38.79441001 -67.18530273 37.21850586 C-67.18747713 34.83754268 -67.20562151 32.45705249 -67.22460938 30.07617188 C-67.30567078 8.53177343 -67.30567078 8.53177343 -61 1 C-47.23893872 -12.44830988 -14.17262522 -12.57782875 0 0 Z M-44.75 12.4375 C-47.57574649 15.96968311 -47.17674282 20.04845739 -47.203125 24.3359375 C-47.20882507 25.05230377 -47.21452515 25.76867004 -47.22039795 26.50674438 C-47.22983536 28.02140837 -47.23637693 29.53609277 -47.24023438 31.05078125 C-47.24993589 33.35974203 -47.28096775 35.66781069 -47.3125 37.9765625 C-47.31903105 39.45051557 -47.32428112 40.92447498 -47.328125 42.3984375 C-47.3404718 43.08505463 -47.3528186 43.77167175 -47.36553955 44.47909546 C-47.34544975 48.83446957 -46.67748076 51.54688114 -44 55 C-39.75194557 57.83203629 -36.11888731 57.3302592 -31.125 57.3125 C-30.22652344 57.32861328 -29.32804688 57.34472656 -28.40234375 57.36132812 C-23.45866156 57.36497929 -19.99393457 57.25609926 -16 54 C-10.13821089 46.08658471 -12.4502117 28.97111855 -13.30859375 19.6484375 C-13.99054083 14.91927935 -13.99054083 14.91927935 -16.890625 11.3125 C-21.09085572 8.69902311 -25.09052848 8.81681033 -29.875 8.8125 C-30.58269531 8.80025391 -31.29039062 8.78800781 -32.01953125 8.77539062 C-36.99852754 8.76148281 -40.84457874 9.22947539 -44.75 12.4375 Z " fill="#F2F2F2" transform="translate(762,474)"/>
<path d="M0 0 C9.57 0 19.14 0 29 0 C35.74471608 20.01179498 42.34848597 40.06302683 48.75 60.1875 C49.06358459 61.17182007 49.37716919 62.15614014 49.70025635 63.17028809 C50.5885525 65.96057551 51.47451617 68.7515896 52.359375 71.54296875 C52.62755035 72.38609116 52.89572571 73.22921356 53.17202759 74.09788513 C55 79.88364948 55 79.88364948 55 81 C48.4 81 41.8 81 35 81 C31.125 71.5 31.125 71.5 30 67 C20.1 67 10.2 67 0 67 C-1.32 71.29 -2.64 75.58 -4 80 C-5 81 -5 81 -6.94946289 81.11352539 C-7.7821167 81.10828857 -8.61477051 81.10305176 -9.47265625 81.09765625 C-10.37177734 81.09443359 -11.27089844 81.09121094 -12.19726562 81.08789062 C-13.61555664 81.07532227 -13.61555664 81.07532227 -15.0625 81.0625 C-16.01189453 81.05798828 -16.96128906 81.05347656 -17.93945312 81.04882812 C-20.29303369 81.03700109 -22.64647581 81.01968094 -25 81 C-23.3684579 72.77167222 -20.84332066 64.86904741 -18.28125 56.89453125 C-17.81774154 55.44213809 -17.35457205 53.98963672 -16.89172363 52.53703308 C-15.6794705 48.73578046 -14.46244914 44.93607109 -13.2444458 41.13665771 C-12.00753703 37.27503198 -10.77556501 33.41183203 -9.54296875 29.54882812 C-7.73868858 23.89743762 -5.93317744 18.24644347 -4.12304688 12.59692383 C-3.76045776 11.46491043 -3.39786865 10.33289703 -3.02429199 9.1665802 C-2.03403691 6.1052245 -1.01747255 3.05241764 0 0 Z M14 18 C12.57221867 22.51953547 11.14814986 27.04021722 9.72753906 31.56201172 C9.24353781 33.1007459 8.7585159 34.63915941 8.27246094 36.17724609 C7.57479846 38.38556141 6.88079071 40.59499638 6.1875 42.8046875 C5.96876221 43.49432587 5.75002441 44.18396423 5.5246582 44.89450073 C4.38617613 48.38056166 4.38617613 48.38056166 4 52 C11.26 52 18.52 52 26 52 C23.91604882 44.22205299 21.67733217 36.50931286 19.3125 28.8125 C18.99216797 27.76513672 18.67183594 26.71777344 18.34179688 25.63867188 C17.56267541 23.09199125 16.78205799 20.54578006 16 18 C15.34 18 14.68 18 14 18 Z " fill="#F2F2F2" transform="translate(503,467)"/>
<path d="M0 0 C6.6 0 13.2 0 20 0 C20.0093457 1.80186768 20.01869141 3.60373535 20.02832031 5.46020508 C20.06383184 11.41157978 20.11761894 17.36255362 20.18390274 23.31364918 C20.22342365 26.92209005 20.25558898 30.53028523 20.27099609 34.13891602 C20.28613307 37.62108515 20.32052374 41.10257904 20.36830902 44.58444786 C20.39038165 46.5602481 20.39247629 48.53623861 20.39434814 50.51216125 C20.41406677 51.71317978 20.4337854 52.9141983 20.45410156 54.15161133 C20.46298401 55.21084305 20.47186646 56.27007477 20.48101807 57.36140442 C20.76371054 60.11957847 20.76371054 60.11957847 22.89396667 61.84225464 C25.34816404 63.1913955 26.87217482 63.37369782 29.66015625 63.36328125 C30.9740332 63.36231445 30.9740332 63.36231445 32.31445312 63.36132812 C33.22130859 63.34521484 34.12816406 63.32910156 35.0625 63.3125 C36.42858398 63.31733398 36.42858398 63.31733398 37.82226562 63.32226562 C43.22515154 63.37741558 43.22515154 63.37741558 48 61 C49.04126924 57.87619227 49.15552332 55.61482146 49.20532227 52.33520508 C49.22526749 51.17422806 49.24521271 50.01325104 49.26576233 48.8170929 C49.28247482 47.56389755 49.29918732 46.31070221 49.31640625 45.01953125 C49.33718735 43.73640549 49.35796844 42.45327972 49.37937927 41.13127136 C49.43451906 37.72337185 49.48396389 34.31541259 49.53222656 30.90740967 C49.58250079 27.42845352 49.63815591 23.94958393 49.69335938 20.47070312 C49.80084191 13.6472089 49.9018114 6.82363423 50 0 C56.27 0 62.54 0 69 0 C69.06801956 8.05874872 69.12295565 16.11727087 69.15543652 24.17623043 C69.17103274 27.91910991 69.19215898 31.66178127 69.22631836 35.40454102 C69.25912954 39.02259402 69.27689836 42.64044797 69.28463173 46.25863838 C69.29013651 47.63281954 69.30088513 49.00699091 69.31719017 50.38108635 C69.51490999 67.74868148 69.51490999 67.74868148 64.48213196 73.83587646 C57.51052561 80.78262087 47.95545934 81.36638933 38.60742188 81.36132812 C36.79081055 81.3371582 36.79081055 81.3371582 34.9375 81.3125 C33.72255859 81.31572266 32.50761719 81.31894531 31.25585938 81.32226562 C22.01102878 81.26714739 13.46844442 81.07896639 6 75 C-1.66256426 66.69969966 -0.28868212 53.932409 -0.1953125 43.26171875 C-0.1924826 42.01493851 -0.18965271 40.76815826 -0.18673706 39.4835968 C-0.17565658 35.55146153 -0.15057519 31.61956493 -0.125 27.6875 C-0.11380887 25.00065684 -0.10569356 22.31380733 -0.09765625 19.62695312 C-0.07575711 13.08454526 -0.04131251 6.54231291 0 0 Z " fill="#F2F2F2" transform="translate(556,467)"/>
<path d="M0 0 C6.6 0 13.2 0 20 0 C21.4592103 4.04135198 22.91740032 8.08306714 24.375 12.125 C24.7875 13.26710938 25.2 14.40921875 25.625 15.5859375 C26.02460938 16.69453125 26.42421875 17.803125 26.8359375 18.9453125 C27.20251465 19.96125488 27.5690918 20.97719727 27.94677734 22.02392578 C29.00156764 25.00442965 30.00962031 27.99754456 31 31 C33.52369001 24.37630887 35.8695525 17.6981557 38.1875 11 C38.55552734 9.93910156 38.92355469 8.87820313 39.30273438 7.78515625 C40.20271299 5.19041271 41.10148036 2.59524912 42 0 C48.6 0 55.2 0 62 0 C62 17.16 62 34.32 62 52 C58.04 52 54.08 52 50 52 C49.67 41.11 49.34 30.22 49 19 C46.1702925 27.24033055 46.1702925 27.24033055 43.34643555 35.48266602 C41.41515613 41.08437608 39.44897398 46.60274667 37 52 C33.37 52 29.74 52 26 52 C24.76499733 48.98144509 23.53701286 45.96031003 22.3125 42.9375 C21.97283203 42.10927734 21.63316406 41.28105469 21.28320312 40.42773438 C18.15821179 32.68826987 15.65720518 24.97161553 13 17 C13 28.55 13 40.1 13 52 C8.71 52 4.42 52 0 52 C0 34.84 0 17.68 0 0 Z " fill="#F2F2F2" transform="translate(478,561)"/>
<path d="M0 0 C21.12 0 42.24 0 64 0 C64 5.61 64 11.22 64 17 C56.41 17 48.82 17 41 17 C41 38.12 41 59.24 41 81 C34.73 81 28.46 81 22 81 C22 59.88 22 38.76 22 17 C14.74 17 7.48 17 0 17 C0 11.39 0 5.78 0 0 Z " fill="#F2F2F2" transform="translate(629,467)"/>
<path d="M0 0 C5.115 -0.061875 10.23 -0.12375 15.5 -0.1875 C17.89668945 -0.22846802 17.89668945 -0.22846802 20.34179688 -0.27026367 C34.12667473 -0.35099375 34.12667473 -0.35099375 40 3 C43.66225637 7.00310004 43.48651589 11.33996345 43.4375 16.5 C43.4674707 17.61955078 43.4674707 17.61955078 43.49804688 18.76171875 C43.4945575 22.70470833 43.24777283 24.60519156 41.09765625 28.03125 C39 30 39 30 37 30 C37 30.66 37 31.32 37 32 C37.61875 32.268125 38.2375 32.53625 38.875 32.8125 C41 34 41 34 43 37 C43.14221065 39.60245498 43.18802932 42.09117684 43.125 44.6875 C43.11597656 45.38939453 43.10695313 46.09128906 43.09765625 46.81445312 C43.07413704 48.54311525 43.03826713 50.27160145 43 52 C38.71 52 34.42 52 30 52 C29.77213542 48.64713542 29.54427083 45.29427083 29.31640625 41.94140625 C29.32343886 39.11429756 29.32343886 39.11429756 28 38 C25.47206606 37.76328017 22.97065034 37.5785675 20.4375 37.4375 C17.983125 37.293125 15.52875 37.14875 13 37 C13 41.95 13 46.9 13 52 C8.71 52 4.42 52 0 52 C0 34.84 0 17.68 0 0 Z M13 11 C13 15.95 13 20.9 13 26 C16.6196875 26.12375 16.6196875 26.12375 20.3125 26.25 C21.06829346 26.28641602 21.82408691 26.32283203 22.6027832 26.36035156 C25.79437113 26.41335235 27.54106191 26.41313588 29.95703125 24.23828125 C31.67776443 20.54547185 31.38696852 18.06316946 31 14 C30.04008685 12.11591227 30.04008685 12.11591227 28 11 C25.33106037 10.78123446 22.96499713 10.71664705 20.3125 10.8125 C16.6928125 10.9053125 16.6928125 10.9053125 13 11 Z " fill="#F2F2F2" transform="translate(680,561)"/>
<path d="M0 0 C1.51013672 -0.0299707 1.51013672 -0.0299707 3.05078125 -0.06054688 C9.43136326 -0.05636563 13.3028924 0.67625097 18.5 4.4375 C24.06820737 10.3769212 22.75425086 18.56074582 22.8125 26.1875 C22.84150391 27.43789063 22.87050781 28.68828125 22.90039062 29.9765625 C22.95060466 37.28463535 22.57085128 42.28284916 18.5 48.4375 C12.75593257 52.88915226 6.71593982 52.64688228 -0.25 52.6875 C-1.55324219 52.7184375 -1.55324219 52.7184375 -2.8828125 52.75 C-9.67841236 52.79081441 -15.6150949 52.01873088 -20.875 47.3125 C-27.09065622 36.31556976 -25.76772169 20.21997079 -22.5 8.4375 C-20.29459842 4.43510453 -17.89447955 2.80195467 -13.69604492 1.06811523 C-9.2159045 -0.2183998 -4.62647581 -0.03258082 0 0 Z M-9.5 12.4375 C-12.47372772 16.89809158 -11.82930535 21.12836981 -11.8125 26.375 C-11.82861328 27.37724609 -11.84472656 28.37949219 -11.86132812 29.41210938 C-11.86197266 30.37826172 -11.86261719 31.34441406 -11.86328125 32.33984375 C-11.86626221 33.22148193 -11.86924316 34.10312012 -11.87231445 35.01147461 C-11.4197543 37.96038624 -10.58955845 39.32535661 -8.5 41.4375 C-5.83448124 41.81871721 -3.65157379 41.95328456 -1 41.875 C0.01513672 41.88563477 0.01513672 41.88563477 1.05078125 41.89648438 C3.94747024 41.85934734 5.99864938 41.78988373 8.40625 40.09765625 C11.24713867 35.7855931 10.72024021 31.01750518 10.75 26.0625 C10.770625 25.21171875 10.79125 24.3609375 10.8125 23.484375 C10.86310379 16.91991312 10.86310379 16.91991312 7.5 11.4375 C1.98646914 9.71506257 -4.32558821 9.78395549 -9.5 12.4375 Z " fill="#F2F2F2" transform="translate(652.5,560.5625)"/>
<path d="M0 0 C1.02416016 -0.01611328 2.04832031 -0.03222656 3.10351562 -0.04882812 C8.6575432 -0.05242296 12.80708845 0.10085174 17.5625 3.3125 C21.13813204 7.48407071 20.82903469 11.07065116 20.5625 16.3125 C16.6025 16.3125 12.6425 16.3125 8.5625 16.3125 C7.9025 14.6625 7.2425 13.0125 6.5625 11.3125 C-0.62745898 10.0874276 -0.62745898 10.0874276 -7.4375 12.3125 C-7.48004356 14.31204746 -7.47830783 16.31291636 -7.4375 18.3125 C-5.93002825 19.81997175 -4.49646138 19.57612129 -2.39453125 19.7421875 C-1.56759766 19.81566406 -0.74066406 19.88914062 0.11132812 19.96484375 C1.85040574 20.11159049 3.5899996 20.25235992 5.33007812 20.38671875 C11.25596934 20.92751934 15.87047608 21.85333047 20.4140625 26.00390625 C22.08395843 29.36073787 21.99761732 32.58618329 21.9375 36.25 C21.94910156 36.95318359 21.96070313 37.65636719 21.97265625 38.38085938 C21.94743907 42.86531429 21.5486065 45.90590095 18.5625 49.3125 C12.72454894 52.79398644 7.23840426 52.76825691 0.5625 52.6875 C-0.3965625 52.69910156 -1.355625 52.71070313 -2.34375 52.72265625 C-8.93607032 52.69549009 -14.40418826 52.28952348 -19.33203125 47.453125 C-21.33278262 43.57887853 -21.15416064 39.61925824 -21.4375 35.3125 C-17.4775 35.3125 -13.5175 35.3125 -9.4375 35.3125 C-9.1075 37.2925 -8.7775 39.2725 -8.4375 41.3125 C-2.8275 41.3125 2.7825 41.3125 8.5625 41.3125 C8.5625 38.3425 8.5625 35.3725 8.5625 32.3125 C7.11617187 32.20292969 5.66984375 32.09335937 4.1796875 31.98046875 C2.26557101 31.82095904 0.35151131 31.66076682 -1.5625 31.5 C-2.51382813 31.42974609 -3.46515625 31.35949219 -4.4453125 31.28710938 C-9.67439074 30.83319633 -13.9952413 30.36166637 -18.4375 27.3125 C-21.95719615 22.14597354 -21.78899816 15.74538906 -21.01171875 9.76953125 C-20.22423618 6.39996296 -19.05538272 4.5667879 -16.4375 2.3125 C-11.00029321 -0.28335372 -5.91630377 -0.01854641 0 0 Z " fill="#F2F2F2" transform="translate(747.4375,560.6875)"/>
<path d="M0 0 C6.27 0 12.54 0 19 0 C21.28428398 6.92157789 23.56279834 13.84501765 25.8359375 20.77026367 C26.61038631 23.12690751 27.38642177 25.48303054 28.1640625 27.83862305 C29.28020007 31.22049141 30.39065729 34.60417885 31.5 37.98828125 C31.84998047 39.04461258 32.19996094 40.10094391 32.56054688 41.18928528 C32.88087891 42.17007553 33.20121094 43.15086578 33.53125 44.16137695 C33.81548828 45.02519485 34.09972656 45.88901276 34.39257812 46.77900696 C35 49 35 49 35 52 C30.71 52 26.42 52 22 52 C21.01 49.03 20.02 46.06 19 43 C12.73 42.67 6.46 42.34 0 42 C-0.66 44.97 -1.32 47.94 -2 51 C-3 52 -3 52 -5.94140625 52.09765625 C-7.13636719 52.08605469 -8.33132813 52.07445312 -9.5625 52.0625 C-11.35880859 52.04896484 -11.35880859 52.04896484 -13.19140625 52.03515625 C-14.11824219 52.02355469 -15.04507813 52.01195312 -16 52 C-13.24474233 41.13070813 -9.72150918 30.48916807 -6.3125 19.8125 C-5.69966274 17.88743569 -5.08703079 15.96230602 -4.47460938 14.03710938 C-2.98581879 9.35718986 -1.49282141 4.67864286 0 0 Z M9 12 C7.99534271 15.12352227 6.99707073 18.24904853 6 21.375 C5.57074219 22.70917969 5.57074219 22.70917969 5.1328125 24.0703125 C4.86210938 24.92109375 4.59140625 25.771875 4.3125 26.6484375 C4.06113281 27.43395996 3.80976562 28.21948242 3.55078125 29.02880859 C2.9102974 30.97992105 2.9102974 30.97992105 3 33 C7.29 33 11.58 33 16 33 C15.35992743 26.11921989 13.47479101 19.44379546 11 13 C10.34 12.67 9.68 12.34 9 12 Z " fill="#F2F2F2" transform="translate(558,561)"/>
<path d="M0 0 C13.2 0 26.4 0 40 0 C40 3.63 40 7.26 40 11 C35.38 11 30.76 11 26 11 C26 24.53 26 38.06 26 52 C22.04 52 18.08 52 14 52 C14 38.47 14 24.94 14 11 C9.38 11 4.76 11 0 11 C0 7.37 0 3.74 0 0 Z " fill="#F2F2F2" transform="translate(587,561)"/>
<path d="M0 0 C1.81242052 -0.02687279 3.62495233 -0.04633715 5.4375 -0.0625 C6.44683594 -0.07410156 7.45617187 -0.08570313 8.49609375 -0.09765625 C11 0 11 0 12 1 C12.04092937 3.33297433 12.04241723 5.66705225 12 8 C8.04 8 4.08 8 0 8 C0 5.36 0 2.72 0 0 Z " fill="#F2F2F2" transform="translate(841,599)"/>
<path d="M0 0 C1.81242052 -0.02687279 3.62495233 -0.04633715 5.4375 -0.0625 C6.44683594 -0.07410156 7.45617187 -0.08570313 8.49609375 -0.09765625 C11 0 11 0 12 1 C12.125 3.5 12.125 3.5 12 6 C11 7 11 7 8.49609375 7.09765625 C6.98208984 7.08025391 6.98208984 7.08025391 5.4375 7.0625 C4.42558594 7.05347656 3.41367187 7.04445313 2.37109375 7.03515625 C1.58863281 7.02355469 0.80617188 7.01195312 0 7 C0 4.69 0 2.38 0 0 Z " fill="#F2F2F2" transform="translate(841,588)"/>
</svg>
